<?xml version="1.0" encoding="UTF-8"?>
<svg xmlns="http://www.w3.org/2000/svg" xmlns:xlink="http://www.w3.org/1999/xlink" width="80px" height="80px" viewBox="0 0 80 80" version="1.1">
<g id="surface1">
<path style=" stroke:none;fill-rule:nonzero;fill:rgb(0%,0%,0%);fill-opacity:1;" d="M 67.769531 14.09375 C 62.589844 11.667969 57.050781 9.910156 51.261719 8.90625 C 50.550781 10.191406 49.722656 11.921875 49.148438 13.296875 C 42.996094 12.371094 36.898438 12.371094 30.855469 13.296875 C 30.285156 11.921875 29.433594 10.191406 28.71875 8.90625 C 22.921875 9.910156 17.378906 11.675781 12.199219 14.105469 C 1.753906 29.890625 -1.074219 45.28125 0.339844 60.453125 C 7.265625 65.628906 13.980469 68.769531 20.582031 70.828125 C 22.210938 68.585938 23.664062 66.199219 24.917969 63.6875 C 22.53125 62.78125 20.25 61.664062 18.089844 60.363281 C 18.664062 59.941406 19.222656 59.496094 19.765625 59.042969 C 32.925781 65.199219 47.230469 65.199219 60.234375 59.042969 C 60.785156 59.496094 61.34375 59.941406 61.910156 60.363281 C 59.746094 61.667969 57.453125 62.789062 55.070312 63.695312 C 56.320312 66.199219 57.769531 68.589844 59.40625 70.835938 C 66.011719 68.777344 72.730469 65.636719 79.660156 60.453125 C 81.320312 42.863281 76.820312 27.613281 67.769531 14.09375 Z M 26.710938 51.125 C 22.757812 51.125 19.519531 47.433594 19.519531 42.941406 C 19.519531 38.449219 22.691406 34.753906 26.710938 34.753906 C 30.730469 34.753906 33.972656 38.445312 33.902344 42.941406 C 33.910156 47.433594 30.730469 51.125 26.710938 51.125 Z M 53.289062 51.125 C 49.335938 51.125 46.097656 47.433594 46.097656 42.941406 C 46.097656 38.449219 49.269531 34.753906 53.289062 34.753906 C 57.308594 34.753906 60.550781 38.445312 60.480469 42.941406 C 60.480469 47.433594 57.308594 51.125 53.289062 51.125 Z M 53.289062 51.125 "/>
</g>
</svg>
