<?xml version="1.0" encoding="UTF-8"?>
<svg xmlns="http://www.w3.org/2000/svg" xmlns:xlink="http://www.w3.org/1999/xlink" width="80px" height="px" viewBox="0 0 80 80" version="1.1">
<g id="surface1">
<path style=" stroke:none;fill-rule:nonzero;fill:rgb(0%,0%,0%);fill-opacity:1;" d="M 80 40.242188 C 80 18.152344 62.089844 0.242188 40 0.242188 C 17.910156 0.242188 0 18.152344 0 40.242188 C 0 60.210938 14.625 76.757812 33.75 79.757812 L 33.75 51.808594 L 23.59375 51.808594 L 23.59375 40.238281 L 33.75 40.238281 L 33.75 31.433594 C 33.75 21.410156 39.722656 15.871094 48.859375 15.871094 C 53.234375 15.871094 57.8125 16.652344 57.8125 16.652344 L 57.8125 26.496094 L 52.765625 26.496094 C 47.796875 26.496094 46.246094 29.578125 46.246094 32.742188 L 46.246094 40.242188 L 57.339844 40.242188 L 55.566406 51.808594 L 46.246094 51.808594 L 46.246094 79.761719 C 65.375 76.757812 80 60.207031 80 40.242188 Z M 80 40.242188 "/>
</g>
</svg>
