<?xml version="1.0" encoding="UTF-8"?>
<svg xmlns="http://www.w3.org/2000/svg" xmlns:xlink="http://www.w3.org/1999/xlink" width="80px" height="px" viewBox="0 0 80 80" version="1.1">
<g id="surface1">
<path style=" stroke:none;fill-rule:nonzero;fill:rgb(0%,0%,0%);fill-opacity:1;" d="M 40 0.988281 C 17.898438 0.988281 0 18.898438 0 40.988281 C 0 58.667969 11.460938 73.65625 27.351562 78.941406 C 29.351562 79.316406 30.082031 78.078125 30.082031 77.015625 C 30.082031 76.066406 30.050781 73.550781 30.035156 70.214844 C 18.90625 72.628906 16.558594 64.851562 16.558594 64.851562 C 14.738281 60.234375 12.109375 59 12.109375 59 C 8.488281 56.519531 12.390625 56.570312 12.390625 56.570312 C 16.40625 56.851562 18.515625 60.691406 18.515625 60.691406 C 22.082031 66.808594 27.878906 65.039062 30.167969 64.015625 C 30.527344 61.429688 31.558594 59.667969 32.699219 58.667969 C 23.816406 57.667969 14.480469 54.226562 14.480469 38.898438 C 14.480469 34.535156 16.03125 30.964844 18.597656 28.167969 C 18.148438 27.15625 16.796875 23.089844 18.945312 17.578125 C 18.945312 17.578125 22.296875 16.507812 29.945312 21.679688 C 33.148438 20.789062 36.546875 20.351562 39.945312 20.328125 C 43.347656 20.351562 46.746094 20.789062 49.945312 21.679688 C 57.546875 16.507812 60.898438 17.578125 60.898438 17.578125 C 63.046875 23.089844 61.695312 27.15625 61.296875 28.167969 C 63.847656 30.964844 65.398438 34.535156 65.398438 38.898438 C 65.398438 54.265625 56.046875 57.648438 47.148438 58.632812 C 48.546875 59.832031 49.847656 62.285156 49.847656 66.035156 C 49.847656 71.386719 49.796875 75.6875 49.796875 76.988281 C 49.796875 78.035156 50.496094 79.285156 52.546875 78.886719 C 68.550781 73.640625 80 58.640625 80 40.988281 C 80 18.898438 62.089844 0.988281 40 0.988281 "/>
</g>
</svg>
