<?xml version="1.0" encoding="UTF-8"?>
<svg xmlns="http://www.w3.org/2000/svg" xmlns:xlink="http://www.w3.org/1999/xlink" width="80px" height="px" viewBox="0 0 80 80" version="1.1">
<defs>
<clipPath id="clip1">
  <path d="M 6.378906 6.378906 L 73.578125 6.378906 L 73.578125 73.578125 L 6.378906 73.578125 Z M 6.378906 6.378906 "/>
</clipPath>
</defs>
<g id="surface1">
<g clip-path="url(#clip1)" clip-rule="nonzero">
<path style=" stroke:none;fill-rule:nonzero;fill:rgb(100%,51.764706%,0%);fill-opacity:1;" d="M 71.785156 16.550781 C 72.964844 15.402344 73.546875 14.007812 73.53125 12.363281 C 73.546875 10.71875 72.964844 9.304688 71.785156 8.128906 C 70.636719 6.976562 69.238281 6.394531 67.59375 6.378906 C 65.949219 6.394531 64.539062 6.976562 63.359375 8.128906 L 39.976562 31.554688 L 16.550781 8.128906 C 15.402344 6.976562 14.007812 6.394531 12.363281 6.378906 C 10.71875 6.394531 9.304688 6.976562 8.128906 8.128906 C 6.976562 9.304688 6.394531 10.71875 6.378906 12.363281 C 6.394531 14.007812 6.976562 15.402344 8.128906 16.550781 L 31.554688 39.976562 L 8.128906 63.359375 C 6.976562 64.539062 6.394531 65.949219 6.378906 67.59375 C 6.394531 69.238281 6.976562 70.636719 8.128906 71.785156 C 9.304688 72.964844 10.71875 73.546875 12.363281 73.53125 C 14.007812 73.546875 15.402344 72.964844 16.550781 71.785156 L 39.976562 48.402344 L 63.359375 71.785156 C 64.539062 72.964844 65.949219 73.546875 67.59375 73.53125 C 69.238281 73.546875 70.636719 72.964844 71.785156 71.785156 C 72.964844 70.636719 73.546875 69.238281 73.53125 67.59375 C 73.546875 65.949219 72.964844 64.539062 71.785156 63.359375 L 48.402344 39.976562 Z M 71.785156 16.550781 "/>
</g>
</g>
</svg>
