<?xml version="1.0" encoding="UTF-8"?>
<svg xmlns="http://www.w3.org/2000/svg" xmlns:xlink="http://www.w3.org/1999/xlink" width="80px" height="px" viewBox="0 0 80 80" version="1.1">
<defs>
<clipPath id="clip1">
  <path d="M 4.953125 58.453125 L 75.03125 58.453125 L 75.03125 66.550781 L 4.953125 66.550781 Z M 4.953125 58.453125 "/>
</clipPath>
<clipPath id="clip2">
  <path d="M 4.953125 35.839844 L 75.03125 35.839844 L 75.03125 44.160156 L 4.953125 44.160156 Z M 4.953125 35.839844 "/>
</clipPath>
<clipPath id="clip3">
  <path d="M 4.953125 14.394531 L 75.03125 14.394531 L 75.03125 22.613281 L 4.953125 22.613281 Z M 4.953125 14.394531 "/>
</clipPath>
</defs>
<g id="surface1">
<g clip-path="url(#clip1)" clip-rule="nonzero">
<path style=" stroke:none;fill-rule:nonzero;fill:rgb(100%,51.764706%,0%);fill-opacity:1;" d="M 8.996094 66.550781 L 70.988281 66.550781 C 73.222656 66.550781 75.03125 64.738281 75.03125 62.503906 C 75.03125 60.269531 73.222656 58.457031 70.988281 58.457031 L 8.996094 58.457031 C 6.761719 58.457031 4.953125 60.269531 4.953125 62.503906 C 4.953125 64.738281 6.761719 66.550781 8.996094 66.550781 "/>
</g>
<g clip-path="url(#clip2)" clip-rule="nonzero">
<path style=" stroke:none;fill-rule:nonzero;fill:rgb(100%,51.764706%,0%);fill-opacity:1;" d="M 8.996094 44.070312 L 70.988281 44.070312 C 73.222656 44.070312 75.03125 42.257812 75.03125 40.023438 C 75.03125 37.789062 73.222656 35.980469 70.988281 35.980469 L 8.996094 35.980469 C 6.761719 35.980469 4.953125 37.789062 4.953125 40.023438 C 4.953125 42.257812 6.761719 44.070312 8.996094 44.070312 "/>
</g>
<g clip-path="url(#clip3)" clip-rule="nonzero">
<path style=" stroke:none;fill-rule:nonzero;fill:rgb(100%,51.764706%,0%);fill-opacity:1;" d="M 4.953125 18.445312 C 4.953125 20.679688 6.761719 22.492188 8.996094 22.492188 L 70.988281 22.492188 C 73.222656 22.492188 75.03125 20.679688 75.03125 18.445312 C 75.03125 16.210938 73.222656 14.398438 70.988281 14.398438 L 8.996094 14.398438 C 6.761719 14.398438 4.953125 16.210938 4.953125 18.445312 "/>
</g>
</g>
</svg>
