<?xml version="1.0" encoding="UTF-8"?>
<svg xmlns="http://www.w3.org/2000/svg" xmlns:xlink="http://www.w3.org/1999/xlink" width="80px" height="px" viewBox="0 0 80 80" version="1.1">
<g id="surface1">
<path style=" stroke:none;fill-rule:nonzero;fill:rgb(0%,0%,0%);fill-opacity:1;" d="M 40 0 C 29.132812 0 27.777344 0.0507812 23.511719 0.238281 C 19.25 0.441406 16.351562 1.109375 13.800781 2.101562 C 11.171875 3.121094 8.9375 4.488281 6.714844 6.714844 C 4.488281 8.9375 3.117188 11.167969 2.101562 13.800781 C 1.109375 16.351562 0.4375 19.25 0.238281 23.511719 C 0.0390625 27.777344 0 29.132812 0 40 C 0 50.867188 0.0507812 52.222656 0.238281 56.488281 C 0.441406 60.746094 1.109375 63.648438 2.101562 66.199219 C 3.121094 68.828125 4.488281 71.0625 6.714844 73.285156 C 8.9375 75.507812 11.167969 76.882812 13.800781 77.898438 C 16.351562 78.886719 19.253906 79.5625 23.511719 79.761719 C 27.777344 79.960938 29.132812 80 40 80 C 50.867188 80 52.222656 79.949219 56.488281 79.761719 C 60.746094 79.558594 63.648438 78.886719 66.199219 77.898438 C 68.828125 76.878906 71.0625 75.507812 73.285156 73.285156 C 75.507812 71.0625 76.882812 68.835938 77.898438 66.199219 C 78.886719 63.648438 79.5625 60.746094 79.761719 56.488281 C 79.960938 52.222656 80 50.867188 80 40 C 80 29.132812 79.949219 27.777344 79.761719 23.511719 C 79.558594 19.253906 78.886719 16.347656 77.898438 13.800781 C 76.878906 11.171875 75.507812 8.9375 73.285156 6.714844 C 71.0625 4.488281 68.835938 3.117188 66.199219 2.101562 C 63.648438 1.109375 60.746094 0.4375 56.488281 0.238281 C 52.222656 0.0390625 50.867188 0 40 0 Z M 40 7.199219 C 50.675781 7.199219 51.949219 7.253906 56.167969 7.4375 C 60.066406 7.621094 62.183594 8.265625 63.589844 8.820312 C 65.464844 9.542969 66.789062 10.410156 68.195312 11.808594 C 69.59375 13.207031 70.460938 14.535156 71.183594 16.410156 C 71.730469 17.816406 72.382812 19.933594 72.558594 23.832031 C 72.75 28.054688 72.792969 29.320312 72.792969 40 C 72.792969 50.679688 72.742188 51.949219 72.546875 56.167969 C 72.34375 60.066406 71.691406 62.183594 71.144531 63.589844 C 70.398438 65.464844 69.546875 66.789062 68.148438 68.195312 C 66.75 69.59375 65.398438 70.460938 63.546875 71.183594 C 62.148438 71.730469 59.996094 72.382812 56.097656 72.558594 C 51.851562 72.75 50.601562 72.792969 39.898438 72.792969 C 29.195312 72.792969 27.945312 72.742188 23.703125 72.546875 C 19.800781 72.34375 17.648438 71.691406 16.25 71.144531 C 14.351562 70.398438 13.050781 69.546875 11.652344 68.148438 C 10.25 66.75 9.351562 65.398438 8.652344 63.546875 C 8.101562 62.148438 7.457031 59.996094 7.253906 56.097656 C 7.101562 51.898438 7.050781 50.601562 7.050781 39.949219 C 7.050781 29.296875 7.101562 27.996094 7.253906 23.746094 C 7.457031 19.847656 8.101562 17.699219 8.652344 16.300781 C 9.351562 14.398438 10.25 13.101562 11.652344 11.695312 C 13.050781 10.300781 14.351562 9.398438 16.25 8.703125 C 17.648438 8.148438 19.753906 7.5 23.652344 7.300781 C 27.902344 7.148438 29.152344 7.101562 39.851562 7.101562 Z M 40 19.460938 C 28.648438 19.460938 19.460938 28.660156 19.460938 40 C 19.460938 51.351562 28.660156 60.539062 40 60.539062 C 51.351562 60.539062 60.539062 51.339844 60.539062 40 C 60.539062 28.648438 51.339844 19.460938 40 19.460938 Z M 40 53.332031 C 32.632812 53.332031 26.667969 47.367188 26.667969 40 C 26.667969 32.632812 32.632812 26.667969 40 26.667969 C 47.367188 26.667969 53.332031 32.632812 53.332031 40 C 53.332031 47.367188 47.367188 53.332031 40 53.332031 Z M 66.152344 18.648438 C 66.152344 21.300781 64 23.449219 61.351562 23.449219 C 58.703125 23.449219 56.554688 21.296875 56.554688 18.648438 C 56.554688 16.003906 58.707031 13.851562 61.351562 13.851562 C 63.996094 13.851562 66.152344 16.003906 66.152344 18.648438 Z M 66.152344 18.648438 "/>
</g>
</svg>
