<?xml version="1.0" encoding="UTF-8"?>
<svg xmlns="http://www.w3.org/2000/svg" xmlns:xlink="http://www.w3.org/1999/xlink" width="80px" height="px" viewBox="0 0 80 80" version="1.1">
<g id="surface1">
<path style=" stroke:none;fill-rule:nonzero;fill:rgb(0%,0%,0%);fill-opacity:1;" d="M 68.15625 68.171875 L 56.308594 68.171875 L 56.308594 49.609375 C 56.308594 45.183594 56.21875 39.488281 50.136719 39.488281 C 43.960938 39.488281 43.015625 44.304688 43.015625 49.285156 L 43.015625 68.171875 L 31.171875 68.171875 L 31.171875 30 L 42.550781 30 L 42.550781 35.203125 L 42.703125 35.203125 C 44.292969 32.203125 48.160156 29.035156 53.9375 29.035156 C 65.941406 29.035156 68.160156 36.9375 68.160156 47.21875 L 68.160156 68.171875 Z M 17.789062 24.777344 C 13.976562 24.777344 10.914062 21.691406 10.914062 17.894531 C 10.914062 14.101562 13.980469 11.015625 17.789062 11.015625 C 21.589844 11.015625 24.671875 14.101562 24.671875 17.894531 C 24.671875 21.691406 21.585938 24.777344 17.789062 24.777344 Z M 23.730469 68.171875 L 11.851562 68.171875 L 11.851562 30 L 23.730469 30 Z M 74.082031 0 L 5.902344 0 C 2.640625 0 0 2.578125 0 5.761719 L 0 74.238281 C 0 77.421875 2.640625 80 5.902344 80 L 74.074219 80 C 77.332031 80 80 77.421875 80 74.238281 L 80 5.761719 C 80 2.578125 77.332031 0 74.074219 0 Z M 74.082031 0 "/>
</g>
</svg>
