<?xml version="1.0" encoding="UTF-8"?>
<svg xmlns="http://www.w3.org/2000/svg" xmlns:xlink="http://www.w3.org/1999/xlink" width="80px" height="px" viewBox="0 0 80 80" version="1.1">
<g id="surface1">
<path style=" stroke:none;fill-rule:nonzero;fill:rgb(0%,0%,0%);fill-opacity:1;" d="M 16.808594 50.550781 C 16.796875 55.1875 13.042969 58.945312 8.40625 58.960938 C 3.765625 58.949219 0.0078125 55.191406 0 50.550781 C 0.0117188 45.914062 3.769531 42.160156 8.40625 42.148438 L 16.808594 42.148438 Z M 21.042969 50.550781 C 21.054688 45.914062 24.8125 42.160156 29.445312 42.148438 C 34.082031 42.160156 37.835938 45.914062 37.851562 50.550781 L 37.851562 71.59375 C 37.839844 76.230469 34.082031 79.988281 29.445312 80 C 24.808594 79.988281 21.054688 76.230469 21.042969 71.59375 Z M 29.445312 16.808594 C 24.8125 16.792969 21.058594 13.042969 21.042969 8.40625 C 21.054688 3.769531 24.808594 0.0117188 29.445312 0 C 34.082031 0.0117188 37.839844 3.769531 37.851562 8.40625 L 37.851562 16.808594 Z M 29.445312 21.042969 C 34.082031 21.054688 37.835938 24.8125 37.851562 29.445312 C 37.835938 34.082031 34.082031 37.835938 29.445312 37.851562 L 8.40625 37.851562 C 3.769531 37.839844 0.0117188 34.082031 0 29.445312 C 0.0117188 24.808594 3.769531 21.054688 8.40625 21.042969 Z M 63.1875 29.445312 C 63.199219 24.808594 66.957031 21.054688 71.59375 21.042969 C 76.230469 21.054688 79.988281 24.808594 80 29.445312 C 79.988281 34.082031 76.230469 37.839844 71.59375 37.851562 L 63.1875 37.851562 Z M 58.960938 29.445312 C 58.945312 34.085938 55.1875 37.839844 50.550781 37.851562 C 45.914062 37.835938 42.160156 34.082031 42.148438 29.445312 L 42.148438 8.40625 C 42.160156 3.769531 45.914062 0.0117188 50.550781 0 C 55.191406 0.0078125 58.949219 3.765625 58.960938 8.40625 Z M 50.550781 63.1875 C 55.191406 63.195312 58.949219 66.953125 58.960938 71.59375 C 58.949219 76.234375 55.191406 79.992188 50.550781 80 C 45.914062 79.988281 42.160156 76.230469 42.148438 71.59375 L 42.148438 63.1875 Z M 50.550781 58.960938 C 45.914062 58.945312 42.15625 55.1875 42.148438 50.550781 C 42.160156 45.914062 45.914062 42.160156 50.550781 42.148438 L 71.59375 42.148438 C 76.230469 42.160156 79.988281 45.914062 80 50.550781 C 79.992188 55.191406 76.234375 58.949219 71.59375 58.960938 Z M 50.550781 58.960938 "/>
</g>
</svg>
