<?xml version="1.0" encoding="UTF-8"?>
<svg xmlns="http://www.w3.org/2000/svg" xmlns:xlink="http://www.w3.org/1999/xlink" width="80px" height="px" viewBox="0 0 80 80" version="1.1">
<g id="surface1">
<path style=" stroke:none;fill-rule:nonzero;fill:rgb(0%,0%,0%);fill-opacity:1;" d="M 41.75 0.0664062 C 46.117188 0 50.449219 0.0351562 54.785156 0 C 55.050781 5.101562 56.882812 10.300781 60.617188 13.898438 C 64.351562 17.601562 69.617188 19.300781 74.75 19.867188 L 74.75 33.300781 C 69.949219 33.132812 65.117188 32.132812 60.75 30.066406 C 58.851562 29.199219 57.082031 28.101562 55.351562 26.964844 C 55.316406 36.699219 55.382812 46.433594 55.285156 56.132812 C 55.015625 60.800781 53.484375 65.433594 50.785156 69.265625 C 46.417969 75.667969 38.851562 79.832031 31.082031 79.964844 C 26.316406 80.234375 21.550781 78.933594 17.484375 76.535156 C 10.75 72.566406 6.015625 65.300781 5.316406 57.5 C 5.25 55.832031 5.214844 54.167969 5.285156 52.535156 C 5.882812 46.199219 9.015625 40.132812 13.882812 36 C 19.417969 31.199219 27.148438 28.898438 34.382812 30.265625 C 34.449219 35.199219 34.25 40.132812 34.25 45.066406 C 30.949219 44 27.082031 44.300781 24.183594 46.300781 C 22.082031 47.667969 20.484375 49.765625 19.648438 52.132812 C 18.949219 53.832031 19.148438 55.699219 19.183594 57.5 C 19.984375 62.964844 25.25 67.566406 30.851562 67.066406 C 34.582031 67.035156 38.148438 64.867188 40.082031 61.699219 C 40.714844 60.601562 41.417969 59.464844 41.449219 58.167969 C 41.785156 52.199219 41.648438 46.265625 41.683594 40.300781 C 41.714844 26.867188 41.648438 13.464844 41.75 0.0664062 Z M 41.75 0.0664062 "/>
</g>
</svg>
