<?xml version="1.0" encoding="UTF-8"?>
<svg xmlns="http://www.w3.org/2000/svg" xmlns:xlink="http://www.w3.org/1999/xlink" width="80px" height="px" viewBox="0 0 80 80" version="1.1">
<g id="surface1">
<path style=" stroke:none;fill-rule:nonzero;fill:rgb(0%,0%,0%);fill-opacity:1;" d="M 78.328125 20.621094 C 77.40625 17.15625 74.710938 14.441406 71.253906 13.5 C 65.015625 11.816406 40 11.816406 40 11.816406 C 40 11.816406 14.984375 11.816406 8.742188 13.5 C 5.285156 14.445312 2.59375 17.15625 1.671875 20.621094 C 0 26.898438 0 40 0 40 C 0 40 0 53.101562 1.671875 59.378906 C 2.59375 62.84375 5.289062 65.558594 8.746094 66.5 C 14.984375 68.183594 40 68.183594 40 68.183594 C 40 68.183594 65.015625 68.183594 71.257812 66.5 C 74.714844 65.558594 77.410156 62.84375 78.328125 59.378906 C 80 53.101562 80 40 80 40 C 80 40 80 26.898438 78.328125 20.621094 Z M 31.816406 51.894531 L 31.816406 28.105469 L 52.726562 40 Z M 31.816406 51.894531 "/>
</g>
</svg>
